# xmcd CD database file
#
# Track frame offsets:
#	150
#	13773
#	28024
#	41498
#	54838
#	69311
#	80904
#	96094
#	110174
#	122722
#	135999
#	150782
#	164258
#	192685
#
# Disc length: 4440 seconds
#
# Revision: 0
# Processed by: cddbd v1.5.1PL2 Copyright (c) Steve Scherf et al.
# Submitted via: CDex 1.50
#
DISCID=b311560e
DTITLE=Monk, Thelonious - The very best
DYEAR=2005
DGENRE=Jazz
TTITLE0=Thelonious
TTITLE1=Ruby my dear
TTITLE2=Well you needn't
TTITLE3=In walked Bud
TTITLE4='round midnight
TTITLE5=Evidence
TTITLE6=Misterioso
TTITLE7=Epistrophy
TTITLE8=I mean you
TTITLE9=Criss cross
TTITLE10=Ask me now
TTITLE11=Straight no chaser
TTITLE12=Let's cool one
TTITLE13=Data
EXTD=YEAR: 2005
EXTT0=
EXTT1=
EXTT2=
EXTT3=
EXTT4=
EXTT5=
EXTT6=
EXTT7=
EXTT8=
EXTT9=
EXTT10=
EXTT11=
EXTT12=
EXTT13=
PLAYORDER=
